<svg id="visual" viewBox="0 0 900 675" width="900" height="675" xmlns="http://www.w3.org/2000/svg" xmlns:xlink="http://www.w3.org/1999/xlink" version="1.1"><path d="M141 0L137.8 16C134.7 32 128.3 64 147.7 96.2C167 128.3 212 160.7 202.2 192.8C192.3 225 127.7 257 132.2 289.2C136.7 321.3 210.3 353.7 209.2 385.8C208 418 132 450 89 482.2C46 514.3 36 546.7 65.5 578.8C95 611 164 643 198.5 659L233 675L0 675L0 659C0 643 0 611 0 578.8C0 546.7 0 514.3 0 482.2C0 450 0 418 0 385.8C0 353.7 0 321.3 0 289.2C0 257 0 225 0 192.8C0 160.7 0 128.3 0 96.2C0 64 0 32 0 16L0 0Z" fill="#0066FF" stroke-linecap="round" stroke-linejoin="miter"></path></svg>