<svg xmlns="http://www.w3.org/2000/svg" version="1.1" xmlns:xlink="http://www.w3.org/1999/xlink" xmlns:svgjs="http://svgjs.dev/svgjs" width="2000" height="373" viewBox="0 0 2000 373"><g transform="matrix(1,0,0,1,-1.2121212121212466,0.2734102382297863)"><svg viewBox="0 0 396 74" data-background-color="#ffffff" preserveAspectRatio="xMidYMid meet" height="373" width="2000" xmlns="http://www.w3.org/2000/svg" xmlns:xlink="http://www.w3.org/1999/xlink"><g id="tight-bounds" transform="matrix(1,0,0,1,0.2400000000000091,-0.0542422456541658)"><svg viewBox="0 0 395.52 74.10848449130836" height="74.10848449130836" width="395.52"><g><svg viewBox="0 0 506.67199326716946 94.93500595474394" height="74.10848449130836" width="395.52"><g transform="matrix(1,0,0,1,0,13.120539896784443)"><svg viewBox="0 0 395.52 68.69392616117506" height="68.69392616117506" width="395.52"><g id="textblocktransform"><svg viewBox="0 0 395.52 68.69392616117506" height="68.69392616117506" width="395.52" id="textblock"><g><svg viewBox="0 0 395.52 68.69392616117506" height="68.69392616117506" width="395.52"><g transform="matrix(1,0,0,1,0,0)"><svg width="395.52" viewBox="3.8499999999999996 -35.5 251.88 43.75" height="68.69392616117506" data-palette-color="#6b9aff"><path d="M4.55 0L4.55 0Q3.85 0 3.85-0.65L3.85-0.65 3.85-25.85Q3.85-26.5 4.4-26.5L4.4-26.5 7.4-26.5Q7.9-26.5 7.9-25.95L7.9-25.95 7.9-23.05Q7.9-22.8 8.03-22.75 8.15-22.7 8.4-22.9L8.4-22.9Q10-24.2 11.38-25.13 12.75-26.05 14.18-26.53 15.6-27 17.25-27L17.25-27Q20.2-27 21.98-25.65 23.75-24.3 24.35-22.6L24.35-22.6Q24.45-22.4 24.65-22.45 24.85-22.5 25.05-22.7L25.05-22.7Q26.65-24.05 28.08-25 29.5-25.95 30.98-26.48 32.45-27 34.1-27L34.1-27Q37.75-27 39.75-24.93 41.75-22.85 41.75-19.35L41.75-19.35 41.75-0.8Q41.75 0 41 0L41 0 38.2 0Q37.85 0 37.7-0.18 37.55-0.35 37.55-0.65L37.55-0.65 37.55-18.5Q37.55-20.95 36.38-22.33 35.2-23.7 32.7-23.7L32.7-23.7Q31.25-23.7 29.93-23.15 28.6-22.6 27.53-21.8 26.45-21 25.6-20.3L25.6-20.3Q25.2-19.95 25.05-19.63 24.9-19.3 24.9-18.8L24.9-18.8 24.9-0.8Q24.9 0 24.15 0L24.15 0 21.35 0Q21.05 0 20.88-0.18 20.7-0.35 20.7-0.65L20.7-0.65 20.7-18.5Q20.7-20.95 19.55-22.33 18.4-23.7 15.9-23.7L15.9-23.7Q13.8-23.7 12.05-22.7 10.3-21.7 8.05-19.65L8.05-19.65 8.05-0.75Q8.05 0 7.3 0L7.3 0 4.55 0ZM49.95 8.25L49.95 8.25Q48.5 8.25 47.7 8.15 46.9 8.05 46.9 7.6L46.9 7.6 46.9 5.65Q46.9 5.3 47.17 5.15 47.45 5 48.3 5L48.3 5 51.45 5Q52.55 5 53.45 4.28 54.35 3.55 54.95 2.45 55.55 1.35 55.75 0.23 55.95-0.9 55.6-1.75L55.6-1.75 46.05-25.65Q45.95-26 46.07-26.25 46.2-26.5 46.6-26.5L46.6-26.5 49.7-26.5Q50-26.5 50.2-26.38 50.4-26.25 50.5-25.95L50.5-25.95 57.95-6.55Q58.15-6.1 58.4-6.1 58.65-6.1 58.85-6.7L58.85-6.7 66.2-25.95Q66.35-26.25 66.5-26.38 66.65-26.5 66.9-26.5L66.9-26.5 69.25-26.5Q69.6-26.5 69.75-26.28 69.9-26.05 69.75-25.75L69.75-25.75 58.75 2.35Q58.05 4.15 57.2 5.3 56.35 6.45 55.27 7.08 54.2 7.7 52.9 7.98 51.6 8.25 49.95 8.25L49.95 8.25ZM96.69-27L96.69-27Q99.29-27 101.27-26.18 103.24-25.35 104.67-23.93 106.09-22.5 107.04-20.8L107.04-20.8Q107.34-20.2 106.79-20.05L106.79-20.05 104.04-19.4Q103.69-19.25 103.39-19.7L103.39-19.7Q102.39-21.15 101.42-22.05 100.44-22.95 99.34-23.43 98.24-23.9 96.94-23.9L96.94-23.9Q94.39-23.9 92.47-22.63 90.54-21.35 89.49-18.95 88.44-16.55 88.44-13.25L88.44-13.25Q88.44-9.9 89.52-7.5 90.59-5.1 92.52-3.85 94.44-2.6 97.04-2.6L97.04-2.6Q99.44-2.6 101.19-3.8 102.94-5 104.39-7.3L104.39-7.3Q104.54-7.55 104.67-7.58 104.79-7.6 105.04-7.5L105.04-7.5 107.19-6.7Q107.54-6.55 107.39-6.05L107.39-6.05Q106.64-4.75 105.64-3.55 104.64-2.35 103.32-1.45 101.99-0.55 100.34-0.03 98.69 0.5 96.69 0.5L96.69 0.5Q92.99 0.5 90.17-1.23 87.34-2.95 85.74-6.03 84.14-9.1 84.14-13.15L84.14-13.15Q84.14-17.25 85.77-20.35 87.39-23.45 90.22-25.23 93.04-27 96.69-27L96.69-27ZM113.49 0L113.49 0Q113.14 0 112.97-0.18 112.79-0.35 112.79-0.65L112.79-0.65 112.79-25.85Q112.79-26.5 113.34-26.5L113.34-26.5 116.24-26.5Q116.79-26.5 116.79-25.95L116.79-25.95 116.79-22.7Q116.79-22.4 116.94-22.35 117.09-22.3 117.34-22.55L117.34-22.55Q118.64-24.1 119.92-25.08 121.19-26.05 122.49-26.53 123.79-27 125.09-27L125.09-27Q126.84-27 126.84-26.35L126.84-26.35 126.84-23.35Q126.84-22.85 126.39-22.95L126.39-22.95Q125.94-23 125.37-23.05 124.79-23.1 124.14-23.1L124.14-23.1Q123.04-23.1 121.79-22.63 120.54-22.15 119.47-21.3 118.39-20.45 117.69-19.4 116.99-18.35 116.99-17.3L116.99-17.3 116.99-0.75Q116.99 0 116.24 0L116.24 0 113.49 0ZM133.39 8.25L133.39 8.25Q131.94 8.25 131.14 8.15 130.34 8.05 130.34 7.6L130.34 7.6 130.34 5.65Q130.34 5.3 130.61 5.15 130.89 5 131.74 5L131.74 5 134.89 5Q135.99 5 136.89 4.28 137.79 3.55 138.39 2.45 138.99 1.35 139.19 0.23 139.39-0.9 139.04-1.75L139.04-1.75 129.49-25.65Q129.39-26 129.51-26.25 129.64-26.5 130.04-26.5L130.04-26.5 133.14-26.5Q133.44-26.5 133.64-26.38 133.84-26.25 133.94-25.95L133.94-25.95 141.39-6.55Q141.59-6.1 141.84-6.1 142.09-6.1 142.29-6.7L142.29-6.7 149.64-25.95Q149.79-26.25 149.94-26.38 150.09-26.5 150.34-26.5L150.34-26.5 152.69-26.5Q153.04-26.5 153.19-26.28 153.34-26.05 153.19-25.75L153.19-25.75 142.19 2.35Q141.49 4.15 140.64 5.3 139.79 6.45 138.71 7.08 137.64 7.7 136.34 7.98 135.04 8.25 133.39 8.25L133.39 8.25ZM161.89-26.5L161.89-26.5Q162.59-26.5 162.59-25.75L162.59-25.75 162.59-23.65Q162.59-23.25 162.76-23.23 162.94-23.2 163.24-23.45L163.24-23.45Q163.79-24.05 164.74-24.88 165.69-25.7 167.21-26.35 168.74-27 171.09-27L171.09-27Q174.14-27 176.61-25.53 179.09-24.05 180.56-21.1 182.04-18.15 182.04-13.65L182.04-13.65Q182.04-9.15 180.59-6 179.14-2.85 176.56-1.18 173.99 0.5 170.54 0.5L170.54 0.5Q168.24 0.5 166.46-0.23 164.69-0.95 163.44-2L163.44-2Q162.99-2.4 162.81-2.33 162.64-2.25 162.64-1.7L162.64-1.7 162.64 7.6Q162.64 8.25 162.09 8.25L162.09 8.25 158.99 8.25Q158.44 8.25 158.44 7.6L158.44 7.6 158.44-25.7Q158.44-26.15 158.61-26.33 158.79-26.5 159.24-26.5L159.24-26.5 161.89-26.5ZM162.64-5.85L162.64-5.85Q164.19-4.35 165.81-3.45 167.44-2.55 169.44-2.55L169.44-2.55Q171.84-2.55 173.71-3.8 175.59-5.05 176.66-7.5 177.74-9.95 177.74-13.6L177.74-13.6Q177.74-17.25 176.64-19.55 175.54-21.85 173.71-22.9 171.89-23.95 169.69-23.95L169.69-23.95Q167.64-23.95 166.04-23.05 164.44-22.15 163.54-20.83 162.64-19.5 162.64-18.2L162.64-18.2 162.64-5.85ZM200.98-23.35L194.63-23.35Q194.23-23.35 194.23-22.95L194.23-22.95 194.23-7.1Q194.23-4.75 195.03-3.95 195.83-3.15 197.43-3.15L197.43-3.15 200.88-3.15Q201.13-3.15 201.28-3.03 201.43-2.9 201.43-2.6L201.43-2.6 201.38-0.9Q201.38-0.4 200.78-0.25L200.78-0.25Q200.28-0.15 199.36-0.1 198.43-0.05 197.56-0.03 196.68 0 196.08 0L196.08 0Q192.93 0 191.48-1.48 190.03-2.95 190.03-6.15L190.03-6.15 190.03-22.85Q190.03-23.35 189.53-23.35L189.53-23.35 185.53-23.35Q184.98-23.35 184.98-23.9L184.98-23.9 184.98-26Q184.98-26.5 185.48-26.5L185.48-26.5 189.73-26.5Q190.08-26.5 190.08-26.9L190.08-26.9 190.63-34.85Q190.68-35.5 191.18-35.5L191.18-35.5 193.68-35.5Q194.28-35.5 194.28-34.8L194.28-34.8 194.28-26.9Q194.28-26.5 194.68-26.5L194.68-26.5 200.98-26.5Q201.53-26.5 201.53-26.05L201.53-26.05 201.53-23.9Q201.53-23.35 200.98-23.35L200.98-23.35ZM217.43 0.5L217.43 0.5Q213.68 0.5 210.81-1.23 207.93-2.95 206.36-6.03 204.78-9.1 204.78-13.1L204.78-13.1Q204.78-17.25 206.41-20.38 208.03-23.5 210.88-25.25 213.73-27 217.48-27L217.48-27Q221.28-27 224.11-25.23 226.93-23.45 228.51-20.33 230.08-17.2 230.08-13.15L230.08-13.15Q230.08-9.15 228.48-6.08 226.88-3 224.06-1.25 221.23 0.5 217.43 0.5L217.43 0.5ZM217.53-2.65L217.53-2.65Q220.13-2.65 221.98-3.93 223.83-5.2 224.81-7.58 225.78-9.95 225.78-13.25L225.78-13.25Q225.78-16.55 224.78-18.93 223.78-21.3 221.93-22.6 220.08-23.9 217.48-23.9L217.48-23.9Q214.93-23.9 213.03-22.6 211.13-21.3 210.11-18.93 209.08-16.55 209.08-13.25L209.08-13.25Q209.08-10 210.11-7.6 211.13-5.2 213.03-3.93 214.93-2.65 217.53-2.65L217.53-2.65ZM252.18-20.65L252.18-20.65Q251.18-22.15 249.38-23.1 247.58-24.05 245.08-24.05L245.08-24.05Q242.38-24.05 240.6-22.9 238.83-21.75 238.83-19.8L238.83-19.8Q238.83-18.75 239.63-17.82 240.43-16.9 242.88-16.1L242.88-16.1 249.23-14.2Q252.68-13.25 254.2-11.45 255.73-9.65 255.73-7.3L255.73-7.3Q255.73-4.95 254.33-3.2 252.93-1.45 250.48-0.48 248.03 0.5 244.93 0.5L244.93 0.5Q240.98 0.5 238.03-1.07 235.08-2.65 233.83-5L233.83-5Q233.68-5.25 233.68-5.45 233.68-5.65 233.93-5.8L233.93-5.8 235.88-6.9Q236.13-7.05 236.33-7.03 236.53-7 236.63-6.85L236.63-6.85Q237.48-5.55 238.6-4.6 239.73-3.65 241.3-3.1 242.88-2.55 244.98-2.55L244.98-2.55Q246.88-2.6 248.43-3.1 249.98-3.6 250.88-4.58 251.78-5.55 251.78-6.85L251.78-6.85Q251.78-8.2 250.68-9.18 249.58-10.15 246.88-10.9L246.88-10.9 241.73-12.35Q237.98-13.35 236.45-15.05 234.93-16.75 234.88-19.05L234.88-19.05Q234.88-21.45 236.18-23.23 237.48-25 239.8-26 242.13-27 245.13-27L245.13-27Q248.48-27 251.1-25.73 253.73-24.45 255.08-22.35L255.08-22.35Q255.23-22.15 255.23-21.98 255.23-21.8 255.03-21.65L255.03-21.65 252.93-20.5Q252.73-20.4 252.55-20.43 252.38-20.45 252.18-20.65L252.18-20.65Z" opacity="1" transform="matrix(1,0,0,1,0,0)" fill="#6b9aff" class="wordmark-text-0" data-fill-palette-color="primary" id="text-0"></path></svg></g></svg></g></svg></g></svg></g><g transform="matrix(1,0,0,1,411.7369873124255,0)"><svg viewBox="0 0 94.93500595474394 94.93500595474394" height="94.93500595474394" width="94.93500595474394"><g data-palette-color="#24a8df"><rect width="25.94890162763001" height="94.93500595474394" fill="#24a8df" stroke="transparent" data-fill-palette-color="accent" x="0" fill-opacity="1"></rect><rect width="25.94890162763001" height="94.93500595474394" fill="#24a8df" stroke="transparent" data-fill-palette-color="accent" x="31.645001984914646" fill-opacity="0.75"></rect><rect width="25.94890162763001" height="94.93500595474394" fill="#24a8df" stroke="transparent" data-fill-palette-color="accent" x="63.29000396982929" fill-opacity="0.5"></rect></g></svg></g></svg></g><defs></defs></svg><rect width="395.52" height="74.10848449130836" fill="none" stroke="none" visibility="hidden"></rect></g></svg></g></svg>