<svg xmlns="http://www.w3.org/2000/svg" enable-background="new 0 0 1000 1000" viewBox="0 0 1000 1000" id="bitcoin-investment-profit"><g opacity=".3"><path fill="#ffb817" d="M498.01 935.27h-7.81v-98.95l38.31-38.31V203.78l-37.28-37.27V81.05h7.81v82.23l37.28 37.27v600.69l-38.31 38.31zm248.74-229.65h-7.81V575.58L643 479.64V282.68l-42.12-42.12v-69.27h7.81v66.04l42.12 42.12v196.96l95.94 95.94z"></path><path fill="#ffb817" d="m745.6 647.01-5.52-5.52 63.55-63.55V442.67l-77.84-77.83V296.2h7.81v65.41l77.83 77.83v141.73z"></path><path fill="#ffb817" d="M726.6 553.82h-7.81v-84.41l58.54-58.55 5.52 5.52-56.25 56.26zm83.69-18.49-5.52-5.52 47.32-47.32V422.5h7.81v63.22zM586.81 866.91h-7.8v-96.84l44.09-44.1v-464.8h7.81V729.2l-44.1 44.1z"></path><path fill="#ffb817" d="M718.27 735.45h-7.8V642.8l-86.22-86.22 5.52-5.52 88.5 88.51zM453.72 909.51h-7.81v-49.95l-27.84-27.85V208.56l27.98-23.37v-78.38h7.81v82.03l-27.98 23.37v616.27l27.84 27.85z"></path><path fill="#ffb817" d="M349.85 305.72h-7.8v-62.18L447.2 138.38l5.52 5.52-102.87 102.87zm-88.11 411.67h-7.8V502.94l57.29-57.3 5.52 5.52-55.01 55.01z"></path><path fill="#ffb817" d="M310.08 242.78h7.81v530.76h-7.81zM111.74 571.3l-5.52-5.52 89.37-89.37V357.27h7.81v122.37zm103.75-233.92h7.81v341.57h-7.81z"></path><path fill="#ffb817" d="M143.87 581.2h88.48v7.81h-88.48z" transform="rotate(-45.001 188.106 585.11)"></path><path fill="#ffb817" d="m289.4 472.99-38.91-38.92V302.38h7.81v128.46l36.62 36.63zm543.42 30.39h7.81V613.1h-7.81zm36.64 80.88h-7.8v-57.73l24.77-24.77v-44.93h7.8v48.16l-24.77 24.77zM147.01 405.85h7.81V526.6h-7.81zm-27 27h7.81v120.97h-7.81zm55.23 65.54h7.81v95.69h-7.81zm528.5 32.57h-7.81V369.57l-23.56-23.56V242.78h7.81v100l23.56 23.56zm-150.29-407.1h7.81v768.61h-7.81zm-62.1 716.84-36.51-36.51V222.07l16.14-20.32V85.63h7.81v118.84l-16.14 20.33v576.16l34.21 34.22z"></path></g><path fill="#a9e8ef" d="M415.02 474.45c-46.91-20.04-101.17 1.75-121.2 48.65-20.03 46.91 1.75 101.17 48.66 121.2s101.16-1.75 121.2-48.65c20.03-46.91-1.76-101.17-48.66-121.2zm-59.04 138.22c-29.43-12.57-43.11-46.63-30.53-76.06 12.57-29.44 46.63-43.11 76.06-30.53 29.44 12.57 43.12 46.63 30.54 76.06-12.57 29.43-46.63 43.11-76.07 30.53z"></path><path fill="#a9e8ef" d="M394 523.64c-19.73-8.43-42.55.74-50.99 20.47-8.44 19.73.74 42.56 20.47 50.99s42.56-.73 50.99-20.46c8.43-19.74-.74-42.58-20.47-51zm26.02-18.42-33.96-14.51 29.03-57.12 26.13 11.16zm-49.61 116.15-34.04-14.32-20.87 60.58 26.18 11.02zm71.28-68.97-11.66-35.05 62.01-16.13 8.98 26.97zm-10.49 56.51 12.39-34.81 58.81 25.46-9.53 26.78zM311.04 554.1l13.11-34.53-61.28-18.72-10.09 26.56zm25.29-46.7 33.39-15.82-31.23-55.95-25.68 12.17zm83.64 104.07-33.67 15.19 30.16 56.53 25.9-11.68zm-107.89-45.54 11 35.26-62.31 14.96-8.45-27.13z"></path><path fill="#d0cfd9" d="M766.6 776.76c0 18.24-148.71 33.03-332.17 33.03-183.44 0-332.16-14.79-332.16-33.03 0-18.24 148.72-33.04 332.16-33.04 183.46 0 332.17 14.79 332.17 33.04z"></path><path fill="#ffe9ba" d="M241.19 716.21h63.35v63.86h-63.35z"></path><path fill="#725559" d="M241.19 716.21h63.35v31.93h-63.35z"></path><path fill="#ffe9ba" d="M349.27 652.36h65.57v127.71h-65.57z"></path><path fill="#725559" d="M349.27 652.36h65.57v63.86h-65.57z"></path><path fill="#ffe9ba" d="M455.99 544.29h66.91v235.78h-66.91z"></path><path fill="#725559" d="M455.99 544.29h66.91v76.66h-66.91z"></path><path fill="#ffe9ba" d="M560.79 403.48h66.91v376.59h-66.91z"></path><path fill="#725559" d="M560.79 403.48h66.91v86.74h-66.91z"></path><path fill="#d14339" d="m241.19 671.64 136.77-60.24 216.28-329.54-18.41-10.82-211.8 317.49-122.84 83.11z"></path><path fill="#d14339" d="m513.18 290.93 58.79 6.21 23.51 40.66.54-3.69 12.38-86.36-95.22 43.18z"></path><path fill="#80d2d6" d="M647.44 665.87V643.5c-15.39-.71-30.33-4.95-39.04-10.13l6.87-27.54c9.65 5.41 23.22 10.36 38.14 10.36 13.11 0 22.06-5.18 22.06-14.6 0-8.95-7.36-14.59-24.35-20.48-24.59-8.48-41.35-20.25-41.35-43.09 0-20.72 14.25-36.97 38.82-41.92v-22.36h22.51v20.71c15.39.71 25.73 4 33.3 7.77l-6.65 26.61c-5.97-2.6-16.54-8.01-33.07-8.01-14.94 0-19.74 6.6-19.74 13.19 0 7.76 8.03 12.71 27.55 20.24 27.33 9.9 38.36 22.85 38.36 44.04 0 20.95-14.49 38.85-40.88 43.55v24.02h-22.53z"></path><path fill="#efc18f" d="M359.9 571.05s19.44 15.08 11.77 14.49c-7.66-.59-14.11-1.43-18.84-12.64l7.07-1.85z"></path><path fill="#9991e2" d="M367.54 455.65c-.03-4.16-1.77-13.11-9.97-8.69-13.02 7.02-29.78 52.38-30.47 63.2-.68 10.83 25.89 64.34 25.89 64.34s6.04 1.89 8.13-3.97l-17.88-60.15c-.01.02 24.41-40.35 24.3-54.73z"></path><path fill="#ffd9a7" d="m349.38 801.04.9 11.84-12.05-2.2-.34-15.19zm76.55-10.38.89 11.83-12.04-2.2-.35-15.19z"></path><path fill="#6b5a84" d="M426.05 798.21s-5.18 6.85-12.5 1.75c0 0-7.88 20.86 6.49 22.39 14.36 1.52 39.76-3.79 42.6-10.22 4.07-9.27-19.35-13.05-36.59-13.92zm-76.45 11.82s-7.09 4.86-12.42-2.3c0 0-14.07 17.29-.93 23.29 13.14 5.98 38.92 8.99 43.64 3.79 6.82-7.5-14.21-18.49-30.29-24.78z"></path><path fill="#efc18f" d="M370.65 418.43s7.07 15.51 1.8 26.11c-3.35 6.75 26.77 26.57 25.57 17.88-1.57-11.21-7.41-17.74-2.17-30.82l-25.2-13.17z"></path><path fill="#ffd9a8" d="M393.83 389.7c9.73 8.82 18.55 38.92 8.67 47.84-4.3 3.88-20.18 9.33-31.91-7.88-4.83-7.07-10.88-20.35-3.88-34.01 3.16-6.19 15.78-16.22 27.12-5.95z"></path><path fill="#9b4d34" d="M409.67 393.24s-4.4 7.14-19.32 9.72c-14.92 2.57-10.73 6.91-9.13 10.44 4.67 10.4-5.71 6.62 0 19.02 5.71 12.41-12.27.86-13.74-.98-1.45-1.85-14.91-16.83-6.7-35.13 8.18-18.3 35.46-12.86 48.89-3.07z"></path><path fill="#afae35" d="M393.7 565.59 379 686.83s-8.52 88.21-21 116.2c-2.72 6.11-23.4 5.79-25.72-1.23-11.26-34.1 9.97-141.61 9.97-141.61l4.41-94.59h47.04z"></path><path fill="#d8d844" d="M370.65 565.59c-20.08 24.24 23.45 123.74 23.45 123.74s-3.06 76.45 12.85 98.75c3.59 5.03 24.93 5.83 26.47 0 8.63-32.65 0-115.91 0-115.91l-9.02-106.58h-30.7s-19.37-4.44-23.05 0z"></path><path fill="#b1a6f2" d="M403.29 452.63c13.81 11.51 24.86 38.47 27.15 125.46.51 19.13-87.06 15.12-86.69-4.02.97-50.92-12.8-67.29 3.57-112.59 4.45-12.31 28.6-31.67 55.97-8.85z"></path><path fill="#efc18f" d="M501.32 405.97s4.69-25.47 7.84-18.02c3.15 7.45 5.49 13.89-2.7 23.74l-5.14-5.72z"></path><path fill="#9991e2" d="M389.7 454.67c-3.88 2.03-11.4 7.99-3.3 13.52 12.86 8.78 63.39 2.51 73.85-2.09 10.46-4.6 47.64-55.34 47.64-55.34s-1.16-6.56-7.64-5.68l-47.59 45.83s-49.57-3.3-62.96 3.76z"></path><path fill="#fff" d="M667.67 339.38c-3.09 0-5.94-1.04-8.2-2.79a13.354 13.354 0 0 1-8.2 2.79h-6.47c-7.35 0-13.33-5.9-13.33-13.15v-2.35h-13.3c-4.1 0-7.92-1.85-10.47-5.07-2.55-3.23-3.47-7.36-2.52-11.36l2.05-8.75c1.47-6.09 6.81-10.3 13-10.3h.8v-51.49h-5.67c-7.35 0-13.33-5.98-13.33-13.33v-6.68c0-7.35 5.98-13.33 13.33-13.33h15.39v-7.45c0-7.25 6-13.15 13.37-13.15h6.4c3.21 0 6.15 1.12 8.45 2.99 2.3-1.87 5.25-2.99 8.45-2.99h6.43c7.37 0 13.37 5.9 13.37 13.15v7.34c9.03.56 17.47 4.36 23.95 10.85 7.03 6.98 10.92 16.33 10.92 26.29 0 5.53-1.58 10.7-4.33 15.09.41.38.81.77 1.21 1.17 6.49 6.61 10.06 15.33 10.06 24.56 0 23.06-18.59 41.86-41.59 42.23v2.57c0 7.25-5.98 13.15-13.33 13.15h-6.44z"></path><path fill="#ffb817" d="M674.1 340.52h-6.43c-2.97 0-5.78-.87-8.2-2.52a14.457 14.457 0 0 1-8.2 2.52h-6.47c-7.98 0-14.47-6.41-14.47-14.29v-1.21h-12.16c-4.45 0-8.59-2.01-11.36-5.51-2.77-3.5-3.76-7.99-2.73-12.32l2.05-8.75c1.56-6.47 7.19-11.02 13.76-11.17v-49.22h-4.54c-7.98 0-14.47-6.49-14.47-14.47v-6.68c0-7.98 6.49-14.47 14.47-14.47h14.26v-6.31c0-7.88 6.51-14.29 14.5-14.29h6.4c3.03 0 6 .95 8.46 2.7 2.46-1.75 5.42-2.7 8.46-2.7h6.43c8 0 14.5 6.41 14.5 14.29v6.29c8.89.8 17.24 4.72 23.61 11.1 7.26 7.2 11.25 16.83 11.25 27.1a29.6 29.6 0 0 1-4.02 14.9l.57.57c6.7 6.82 10.39 15.83 10.39 25.36 0 23.16-18.56 42.37-41.59 43.34v1.47c0 7.86-6.49 14.27-14.47 14.27zm-14.63-5.37.69.54c2.17 1.67 4.76 2.55 7.51 2.55h6.43c6.72 0 12.19-5.39 12.19-12.01v-3.69l1.12-.02c22.32-.36 40.47-18.79 40.47-41.09 0-8.94-3.46-17.38-9.73-23.77-.38-.39-.77-.77-1.17-1.14l-.69-.64.5-.8c2.72-4.34 4.16-9.35 4.16-14.49 0-9.66-3.76-18.71-10.59-25.48-6.24-6.24-14.48-9.98-23.21-10.52l-1.07-.07v-8.41c0-6.62-5.48-12.01-12.23-12.01h-6.43c-2.81 0-5.56.97-7.74 2.74l-.72.58-.72-.58a12.372 12.372 0 0 0-7.74-2.74h-6.4c-6.74 0-12.23 5.39-12.23 12.01v8.58h-16.53c-6.72 0-12.19 5.47-12.19 12.19v6.68c0 6.72 5.47 12.19 12.19 12.19h6.81v53.77h-1.93c-5.66 0-10.55 3.88-11.89 9.43l-2.05 8.74a12.11 12.11 0 0 0 2.31 10.39 12.13 12.13 0 0 0 9.57 4.64h14.44v3.49c0 6.62 5.47 12.01 12.19 12.01h6.47c2.75 0 5.34-.88 7.51-2.55l.7-.52z"></path><path fill="#ffb817" d="M710.85 264.84a23.643 23.643 0 0 0-16.4-7.08v-.04c9.07-.51 16.26-7.95 16.26-17.13 0-7.12-2.89-13.59-7.59-18.25-4.66-4.66-11.13-7.59-18.25-7.59h-9.03v-18.64c0-.98-.9-1.77-1.99-1.77h-6.43c-1.08 0-1.95.8-1.95 1.77v18.82h-13.01v-18.82c0-.98-.87-1.77-1.95-1.77h-6.4c-1.08 0-1.99.8-1.99 1.77v18.82h-26.77c-1.08 0-1.95.87-1.95 1.95v6.68c0 1.08.87 1.95 1.95 1.95h17.05v74.25h-12.18c-.9 0-1.7.61-1.92 1.52l-2.06 8.78c-.29 1.23.65 2.42 1.92 2.42h24.68v13.73c0 .98.87 1.77 1.95 1.77h6.47c1.08 0 1.95-.8 1.95-1.77V312.5h12.5v13.73c0 .98.87 1.77 1.95 1.77h6.43c1.08 0 1.95-.8 1.95-1.77V312.5h5.82l4.88-.22c17.05 0 30.89-13.84 30.89-30.86.01-6.46-2.59-12.32-6.78-16.58zm-56.19-36.06h16.12c6.9 0 12.5 5.6 12.5 12.5 0 3.43-1.41 6.58-3.65 8.85-2.28 2.24-5.38 3.65-8.85 3.65h-16.12v-25zm31.47 64.21a13.62 13.62 0 0 1-9.65 3.97h-21.82v-27.28h21.82c7.52 0 13.66 6.11 13.66 13.62 0 3.8-1.55 7.19-4.01 9.69z"></path></svg>