<svg id="visual" viewBox="0 0 900 600" width="900" height="600" xmlns="http://www.w3.org/2000/svg" xmlns:xlink="http://www.w3.org/1999/xlink" version="1.1"><rect x="0" y="0" width="900" height="600" fill="#2f3136"></rect><path d="M0 35L25 31.8C50 28.7 100 22.3 150 41.8C200 61.3 250 106.7 300 110.2C350 113.7 400 75.3 450 74.7C500 74 550 111 600 129.5C650 148 700 148 750 125.8C800 103.7 850 59.3 875 37.2L900 15L900 0L875 0C850 0 800 0 750 0C700 0 650 0 600 0C550 0 500 0 450 0C400 0 350 0 300 0C250 0 200 0 150 0C100 0 50 0 25 0L0 0Z" fill="#0066FF" stroke-linecap="round" stroke-linejoin="miter"></path></svg>