<svg id="visual" viewBox="0 0 900 600" width="900" height="600" xmlns="http://www.w3.org/2000/svg" xmlns:xlink="http://www.w3.org/1999/xlink" version="1.1"><rect x="0" y="0" width="900" height="600" fill="#2f3136"></rect><path d="M0 301L21.5 275.3C43 249.7 86 198.3 128.8 212.5C171.7 226.7 214.3 306.3 257.2 321.2C300 336 343 286 385.8 249C428.7 212 471.3 188 514.2 186C557 184 600 204 642.8 224C685.7 244 728.3 264 771.2 253C814 242 857 200 878.5 179L900 158L900 0L878.5 0C857 0 814 0 771.2 0C728.3 0 685.7 0 642.8 0C600 0 557 0 514.2 0C471.3 0 428.7 0 385.8 0C343 0 300 0 257.2 0C214.3 0 171.7 0 128.8 0C86 0 43 0 21.5 0L0 0Z" fill="#0066FF" stroke-linecap="round" stroke-linejoin="miter"></path></svg>