<svg id="visual" viewBox="0 0 900 600" width="900" height="600" xmlns="http://www.w3.org/2000/svg" xmlns:xlink="http://www.w3.org/1999/xlink" version="1.1"><rect x="0" y="0" width="900" height="600" fill="#ffffff"></rect><path d="M0 99L25 87.2C50 75.3 100 51.7 150 62.8C200 74 250 120 300 141.8C350 163.7 400 161.3 450 137C500 112.7 550 66.3 600 67C650 67.7 700 115.3 750 138.7C800 162 850 161 875 160.5L900 160L900 0L875 0C850 0 800 0 750 0C700 0 650 0 600 0C550 0 500 0 450 0C400 0 350 0 300 0C250 0 200 0 150 0C100 0 50 0 25 0L0 0Z" fill="#0066FF" stroke-linecap="round" stroke-linejoin="miter"></path></svg>